<?xml version="1.0" encoding="UTF-8" standalone="no"?>
<!DOCTYPE svg PUBLIC "-//W3C//DTD SVG 1.1//EN"
 "http://www.w3.org/Graphics/SVG/1.1/DTD/svg11.dtd">
<!-- Generated by graphviz version 2.40.1 (20161225.0304)
 -->
<!-- Title: jsonrpccxx::JsonRpc2Server Pages: 1 -->
<svg width="159pt" height="152pt"
 viewBox="0.00 0.00 159.00 152.00" xmlns="http://www.w3.org/2000/svg" xmlns:xlink="http://www.w3.org/1999/xlink">
<g id="graph0" class="graph" transform="scale(1 1) rotate(0) translate(4 148)">
<title>jsonrpccxx::JsonRpc2Server</title>
<polygon fill="#ffffff" stroke="transparent" points="-4,4 -4,-148 155,-148 155,4 -4,4"/>
<!-- Node2 -->
<g id="node1" class="node">
<title>Node2</title>
<polygon fill="#bfbfbf" stroke="#000000" points="0,-.5 0,-19.5 151,-19.5 151,-.5 0,-.5"/>
<text text-anchor="middle" x="75.5" y="-7.5" font-family="Helvetica,sans-Serif" font-size="10.00" fill="#000000">jsonrpccxx::JsonRpc2Server</text>
</g>
<!-- Node3 -->
<g id="node2" class="node">
<title>Node3</title>
<g id="a_node2"><a xlink:href="classjsonrpccxx_1_1JsonRpcServer.html" target="_top" xlink:title="jsonrpccxx::JsonRpcServer">
<polygon fill="#ffffff" stroke="#000000" points="3,-57.5 3,-76.5 148,-76.5 148,-57.5 3,-57.5"/>
<text text-anchor="middle" x="75.5" y="-64.5" font-family="Helvetica,sans-Serif" font-size="10.00" fill="#000000">jsonrpccxx::JsonRpcServer</text>
</a>
</g>
</g>
<!-- Node3&#45;&gt;Node2 -->
<g id="edge1" class="edge">
<title>Node3&#45;&gt;Node2</title>
<path fill="none" stroke="#191970" d="M75.5,-47.2342C75.5,-37.8491 75.5,-27.0651 75.5,-19.5265"/>
<polygon fill="#191970" stroke="#191970" points="72.0001,-47.3307 75.5,-57.3307 79.0001,-47.3308 72.0001,-47.3307"/>
</g>
<!-- Node4 -->
<g id="node3" class="node">
<title>Node4</title>
<g id="a_node3"><a xlink:href="classjsonrpccxx_1_1Dispatcher.html" target="_top" xlink:title="jsonrpccxx::Dispatcher">
<polygon fill="#ffffff" stroke="#000000" points="11.5,-124.5 11.5,-143.5 139.5,-143.5 139.5,-124.5 11.5,-124.5"/>
<text text-anchor="middle" x="75.5" y="-131.5" font-family="Helvetica,sans-Serif" font-size="10.00" fill="#000000">jsonrpccxx::Dispatcher</text>
</a>
</g>
</g>
<!-- Node4&#45;&gt;Node3 -->
<g id="edge2" class="edge">
<title>Node4&#45;&gt;Node3</title>
<path fill="none" stroke="#9a32cd" stroke-dasharray="5,2" d="M75.5,-114.1079C75.5,-101.714 75.5,-86.3263 75.5,-76.5817"/>
<polygon fill="#9a32cd" stroke="#9a32cd" points="72.0001,-114.4005 75.5,-124.4005 79.0001,-114.4006 72.0001,-114.4005"/>
<text text-anchor="middle" x="103" y="-98" font-family="Helvetica,sans-Serif" font-size="10.00" fill="#000000"> dispatcher</text>
</g>
</g>
</svg>
