<?xml version="1.0" encoding="UTF-8" standalone="no"?>
<!DOCTYPE svg PUBLIC "-//W3C//DTD SVG 1.1//EN"
 "http://www.w3.org/Graphics/SVG/1.1/DTD/svg11.dtd">
<!-- Generated by graphviz version 2.40.1 (20161225.0304)
 -->
<!-- Title: jsonrpccxx::IClientConnector Pages: 1 -->
<svg width="439pt" height="95pt"
 viewBox="0.00 0.00 439.00 95.00" xmlns="http://www.w3.org/2000/svg" xmlns:xlink="http://www.w3.org/1999/xlink">
<g id="graph0" class="graph" transform="scale(1 1) rotate(0) translate(4 91)">
<title>jsonrpccxx::IClientConnector</title>
<polygon fill="#ffffff" stroke="transparent" points="-4,4 -4,-91 435,-91 435,4 -4,4"/>
<!-- Node0 -->
<g id="node1" class="node">
<title>Node0</title>
<polygon fill="#bfbfbf" stroke="#000000" points="146.5,-67.5 146.5,-86.5 302.5,-86.5 302.5,-67.5 146.5,-67.5"/>
<text text-anchor="middle" x="224.5" y="-74.5" font-family="Helvetica,sans-Serif" font-size="10.00" fill="#000000">jsonrpccxx::IClientConnector</text>
</g>
<!-- Node1 -->
<g id="node2" class="node">
<title>Node1</title>
<g id="a_node2"><a xlink:href="classCppHttpLibClientConnector.html" target="_top" xlink:title="CppHttpLibClientConnector">
<polygon fill="#ffffff" stroke="#000000" points="0,-6 0,-25 149,-25 149,-6 0,-6"/>
<text text-anchor="middle" x="74.5" y="-13" font-family="Helvetica,sans-Serif" font-size="10.00" fill="#000000">CppHttpLibClientConnector</text>
</a>
</g>
</g>
<!-- Node0&#45;&gt;Node1 -->
<g id="edge1" class="edge">
<title>Node0&#45;&gt;Node1</title>
<path fill="none" stroke="#191970" d="M191.5623,-63.4955C163.178,-51.858 122.915,-35.3501 97.7729,-25.0419"/>
<polygon fill="#191970" stroke="#191970" points="190.4822,-66.8354 201.0625,-67.3906 193.1377,-60.3586 190.4822,-66.8354"/>
</g>
<!-- Node2 -->
<g id="node3" class="node">
<title>Node2</title>
<g id="a_node3"><a xlink:href="classInMemoryConnector.html" target="_top" xlink:title="InMemoryConnector">
<polygon fill="#ffffff" stroke="#000000" points="167,-6 167,-25 282,-25 282,-6 167,-6"/>
<text text-anchor="middle" x="224.5" y="-13" font-family="Helvetica,sans-Serif" font-size="10.00" fill="#000000">InMemoryConnector</text>
</a>
</g>
</g>
<!-- Node0&#45;&gt;Node2 -->
<g id="edge2" class="edge">
<title>Node0&#45;&gt;Node2</title>
<path fill="none" stroke="#191970" d="M224.5,-57.2462C224.5,-46.5519 224.5,-33.814 224.5,-25.2449"/>
<polygon fill="#191970" stroke="#191970" points="221.0001,-57.3906 224.5,-67.3906 228.0001,-57.3907 221.0001,-57.3906"/>
</g>
<!-- Node3 -->
<g id="node4" class="node">
<title>Node3</title>
<g id="a_node4"><a xlink:href="classTest_1_1TestAPI_1_1TestClientConnector.html" target="_top" xlink:title="Test::TestAPI::TestClient\lConnector">
<polygon fill="#ffffff" stroke="#000000" points="300,-.5 300,-30.5 431,-30.5 431,-.5 300,-.5"/>
<text text-anchor="start" x="308" y="-18.5" font-family="Helvetica,sans-Serif" font-size="10.00" fill="#000000">Test::TestAPI::TestClient</text>
<text text-anchor="middle" x="365.5" y="-7.5" font-family="Helvetica,sans-Serif" font-size="10.00" fill="#000000">Connector</text>
</a>
</g>
</g>
<!-- Node0&#45;&gt;Node3 -->
<g id="edge3" class="edge">
<title>Node0&#45;&gt;Node3</title>
<path fill="none" stroke="#191970" d="M255.8732,-63.316C278.1515,-53.5988 308.0586,-40.5542 331.0075,-30.5446"/>
<polygon fill="#191970" stroke="#191970" points="254.298,-60.1845 246.5313,-67.3906 257.0966,-66.6007 254.298,-60.1845"/>
</g>
</g>
</svg>
