<?xml version="1.0" encoding="UTF-8" standalone="no"?>
<!DOCTYPE svg PUBLIC "-//W3C//DTD SVG 1.1//EN"
 "http://www.w3.org/Graphics/SVG/1.1/DTD/svg11.dtd">
<!-- Generated by graphviz version 2.40.1 (20161225.0304)
 -->
<!-- Title: Graphical Class Hierarchy Pages: 1 -->
<svg width="349pt" height="116pt"
 viewBox="0.00 0.00 349.00 115.50" xmlns="http://www.w3.org/2000/svg" xmlns:xlink="http://www.w3.org/1999/xlink">
<g id="graph0" class="graph" transform="scale(1 1) rotate(0) translate(4 111.5)">
<title>Graphical Class Hierarchy</title>
<polygon fill="#ffffff" stroke="transparent" points="-4,4 -4,-111.5 345,-111.5 345,4 -4,4"/>
<!-- Node0 -->
<g id="node1" class="node">
<title>Node0</title>
<g id="a_node1"><a xlink:href="classjsonrpccxx_1_1IClientConnector.html" target="_top" xlink:title="jsonrpccxx::IClientConnector">
<polygon fill="#ffffff" stroke="#000000" points="0,-50 0,-69 156,-69 156,-50 0,-50"/>
<text text-anchor="middle" x="78" y="-57" font-family="Helvetica,sans-Serif" font-size="10.00" fill="#000000">jsonrpccxx::IClientConnector</text>
</a>
</g>
</g>
<!-- Node1 -->
<g id="node2" class="node">
<title>Node1</title>
<g id="a_node2"><a xlink:href="classCppHttpLibClientConnector.html" target="_top" xlink:title="CppHttpLibClientConnector">
<polygon fill="#ffffff" stroke="#000000" points="192,-88 192,-107 341,-107 341,-88 192,-88"/>
<text text-anchor="middle" x="266.5" y="-95" font-family="Helvetica,sans-Serif" font-size="10.00" fill="#000000">CppHttpLibClientConnector</text>
</a>
</g>
</g>
<!-- Node0&#45;&gt;Node1 -->
<g id="edge1" class="edge">
<title>Node0&#45;&gt;Node1</title>
<path fill="none" stroke="#191970" d="M135.5893,-71.1095C162.3983,-76.514 193.8954,-82.8635 219.2755,-87.9799"/>
<polygon fill="#191970" stroke="#191970" points="136.061,-67.6343 125.5665,-69.089 134.6776,-74.4962 136.061,-67.6343"/>
</g>
<!-- Node2 -->
<g id="node3" class="node">
<title>Node2</title>
<g id="a_node3"><a xlink:href="classInMemoryConnector.html" target="_top" xlink:title="InMemoryConnector">
<polygon fill="#ffffff" stroke="#000000" points="209,-50 209,-69 324,-69 324,-50 209,-50"/>
<text text-anchor="middle" x="266.5" y="-57" font-family="Helvetica,sans-Serif" font-size="10.00" fill="#000000">InMemoryConnector</text>
</a>
</g>
</g>
<!-- Node0&#45;&gt;Node2 -->
<g id="edge2" class="edge">
<title>Node0&#45;&gt;Node2</title>
<path fill="none" stroke="#191970" d="M166.067,-59.5C180.6342,-59.5 195.3993,-59.5 208.9621,-59.5"/>
<polygon fill="#191970" stroke="#191970" points="166.0309,-56.0001 156.0309,-59.5 166.0308,-63.0001 166.0309,-56.0001"/>
</g>
<!-- Node3 -->
<g id="node4" class="node">
<title>Node3</title>
<g id="a_node4"><a xlink:href="classTest_1_1TestAPI_1_1TestClientConnector.html" target="_top" xlink:title="Test::TestAPI::TestClient\lConnector">
<polygon fill="#ffffff" stroke="#000000" points="201,-.5 201,-30.5 332,-30.5 332,-.5 201,-.5"/>
<text text-anchor="start" x="209" y="-18.5" font-family="Helvetica,sans-Serif" font-size="10.00" fill="#000000">Test::TestAPI::TestClient</text>
<text text-anchor="middle" x="266.5" y="-7.5" font-family="Helvetica,sans-Serif" font-size="10.00" fill="#000000">Connector</text>
</a>
</g>
</g>
<!-- Node0&#45;&gt;Node3 -->
<g id="edge3" class="edge">
<title>Node0&#45;&gt;Node3</title>
<path fill="none" stroke="#191970" d="M128.9123,-47.616C151.3996,-42.3669 178.0944,-36.1358 201.9586,-30.5654"/>
<polygon fill="#191970" stroke="#191970" points="127.8443,-44.2711 118.9017,-49.9527 129.4355,-51.0878 127.8443,-44.2711"/>
</g>
</g>
</svg>
