<?xml version="1.0" encoding="UTF-8" standalone="no"?>
<!DOCTYPE svg PUBLIC "-//W3C//DTD SVG 1.1//EN"
 "http://www.w3.org/Graphics/SVG/1.1/DTD/svg11.dtd">
<!-- Generated by graphviz version 2.40.1 (20161225.0304)
 -->
<!-- Title: Test::F Pages: 1 -->
<svg width="300pt" height="184pt"
 viewBox="0.00 0.00 299.50 184.00" xmlns="http://www.w3.org/2000/svg" xmlns:xlink="http://www.w3.org/1999/xlink">
<g id="graph0" class="graph" transform="scale(1 1) rotate(0) translate(4 180)">
<title>Test::F</title>
<polygon fill="#ffffff" stroke="transparent" points="-4,4 -4,-180 295.5,-180 295.5,4 -4,4"/>
<!-- Node1 -->
<g id="node1" class="node">
<title>Node1</title>
<polygon fill="#bfbfbf" stroke="#000000" points="119,-.5 119,-19.5 166,-19.5 166,-.5 119,-.5"/>
<text text-anchor="middle" x="142.5" y="-7.5" font-family="Helvetica,sans-Serif" font-size="10.00" fill="#000000">Test::F</text>
</g>
<!-- Node2 -->
<g id="node2" class="node">
<title>Node2</title>
<g id="a_node2"><a xlink:href="classTest_1_1TestAPI_1_1TestClientConnector.html" target="_top" xlink:title="Test::TestAPI::TestClient\lConnector">
<polygon fill="#ffffff" stroke="#000000" points="0,-78.5 0,-108.5 131,-108.5 131,-78.5 0,-78.5"/>
<text text-anchor="start" x="8" y="-96.5" font-family="Helvetica,sans-Serif" font-size="10.00" fill="#000000">Test::TestAPI::TestClient</text>
<text text-anchor="middle" x="65.5" y="-85.5" font-family="Helvetica,sans-Serif" font-size="10.00" fill="#000000">Connector</text>
</a>
</g>
</g>
<!-- Node2&#45;&gt;Node1 -->
<g id="edge1" class="edge">
<title>Node2&#45;&gt;Node1</title>
<path fill="none" stroke="#9a32cd" stroke-dasharray="5,2" d="M86.7834,-70.42C102.254,-53.6434 122.3955,-31.8017 133.7374,-19.5023"/>
<polygon fill="#9a32cd" stroke="#9a32cd" points="83.8292,-68.4607 79.623,-78.1848 88.9752,-73.2061 83.8292,-68.4607"/>
<text text-anchor="middle" x="120" y="-46.5" font-family="Helvetica,sans-Serif" font-size="10.00" fill="#000000"> c</text>
</g>
<!-- Node3 -->
<g id="node3" class="node">
<title>Node3</title>
<g id="a_node3"><a xlink:href="classjsonrpccxx_1_1IClientConnector.html" target="_top" xlink:title="jsonrpccxx::IClientConnector">
<polygon fill="#ffffff" stroke="#000000" points="64.5,-156.5 64.5,-175.5 220.5,-175.5 220.5,-156.5 64.5,-156.5"/>
<text text-anchor="middle" x="142.5" y="-163.5" font-family="Helvetica,sans-Serif" font-size="10.00" fill="#000000">jsonrpccxx::IClientConnector</text>
</a>
</g>
</g>
<!-- Node3&#45;&gt;Node2 -->
<g id="edge2" class="edge">
<title>Node3&#45;&gt;Node2</title>
<path fill="none" stroke="#191970" d="M124.6808,-149.2222C111.6767,-136.9781 94.1963,-120.5193 81.6095,-108.668"/>
<polygon fill="#191970" stroke="#191970" points="122.4355,-151.9154 132.1154,-156.2223 127.2341,-146.819 122.4355,-151.9154"/>
</g>
<!-- Node4 -->
<g id="node4" class="node">
<title>Node4</title>
<g id="a_node4"><a xlink:href="classjsonrpccxx_1_1JsonRpcClient.html" target="_top" xlink:title="jsonrpccxx::JsonRpcClient">
<polygon fill="#ffffff" stroke="#000000" points="149.5,-84 149.5,-103 291.5,-103 291.5,-84 149.5,-84"/>
<text text-anchor="middle" x="220.5" y="-91" font-family="Helvetica,sans-Serif" font-size="10.00" fill="#000000">jsonrpccxx::JsonRpcClient</text>
</a>
</g>
</g>
<!-- Node3&#45;&gt;Node4 -->
<g id="edge4" class="edge">
<title>Node3&#45;&gt;Node4</title>
<path fill="none" stroke="#9a32cd" stroke-dasharray="5,2" d="M160.4186,-149.3449C175.8149,-135.0343 197.4777,-114.8989 210.1472,-103.1228"/>
<polygon fill="#9a32cd" stroke="#9a32cd" points="157.9612,-146.8506 153.0194,-156.2223 162.7269,-151.9778 157.9612,-146.8506"/>
<text text-anchor="middle" x="209.5" y="-130" font-family="Helvetica,sans-Serif" font-size="10.00" fill="#000000"> connector</text>
</g>
<!-- Node4&#45;&gt;Node1 -->
<g id="edge3" class="edge">
<title>Node4&#45;&gt;Node1</title>
<path fill="none" stroke="#9a32cd" stroke-dasharray="5,2" d="M204.433,-76.3C188.4584,-59.1991 164.5223,-33.5751 151.5835,-19.724"/>
<polygon fill="#9a32cd" stroke="#9a32cd" points="202.1684,-79.003 211.5524,-83.9215 207.2838,-74.2246 202.1684,-79.003"/>
<text text-anchor="middle" x="209" y="-52" font-family="Helvetica,sans-Serif" font-size="10.00" fill="#000000"> clientV1</text>
<text text-anchor="middle" x="209" y="-41" font-family="Helvetica,sans-Serif" font-size="10.00" fill="#000000">clientV2</text>
</g>
</g>
</svg>
