<?xml version="1.0" encoding="UTF-8" standalone="no"?>
<!DOCTYPE svg PUBLIC "-//W3C//DTD SVG 1.1//EN"
 "http://www.w3.org/Graphics/SVG/1.1/DTD/svg11.dtd">
<!-- Generated by graphviz version 2.40.1 (20161225.0304)
 -->
<!-- Title: Test::Server2 Pages: 1 -->
<svg width="312pt" height="230pt"
 viewBox="0.00 0.00 311.50 230.00" xmlns="http://www.w3.org/2000/svg" xmlns:xlink="http://www.w3.org/1999/xlink">
<g id="graph0" class="graph" transform="scale(1 1) rotate(0) translate(4 226)">
<title>Test::Server2</title>
<polygon fill="#ffffff" stroke="transparent" points="-4,4 -4,-226 307.5,-226 307.5,4 -4,4"/>
<!-- Node1 -->
<g id="node1" class="node">
<title>Node1</title>
<polygon fill="#bfbfbf" stroke="#000000" points="64,-.5 64,-19.5 144,-19.5 144,-.5 64,-.5"/>
<text text-anchor="middle" x="104" y="-7.5" font-family="Helvetica,sans-Serif" font-size="10.00" fill="#000000">Test::Server2</text>
</g>
<!-- Node2 -->
<g id="node2" class="node">
<title>Node2</title>
<g id="a_node2"><a xlink:href="classTest_1_1TestAPI_1_1TestServerConnector.html" target="_top" xlink:title="Test::TestAPI::TestServer\lConnector">
<polygon fill="#ffffff" stroke="#000000" points="0,-67.5 0,-97.5 134,-97.5 134,-67.5 0,-67.5"/>
<text text-anchor="start" x="8" y="-85.5" font-family="Helvetica,sans-Serif" font-size="10.00" fill="#000000">Test::TestAPI::TestServer</text>
<text text-anchor="middle" x="67" y="-74.5" font-family="Helvetica,sans-Serif" font-size="10.00" fill="#000000">Connector</text>
</a>
</g>
</g>
<!-- Node2&#45;&gt;Node1 -->
<g id="edge1" class="edge">
<title>Node2&#45;&gt;Node1</title>
<path fill="none" stroke="#9a32cd" stroke-dasharray="5,2" d="M79.2694,-58.4585C85.9719,-45.3252 93.9098,-29.7713 98.9498,-19.8957"/>
<polygon fill="#9a32cd" stroke="#9a32cd" points="76.0947,-56.9798 74.6664,-67.478 82.3297,-60.1618 76.0947,-56.9798"/>
<text text-anchor="middle" x="115" y="-41" font-family="Helvetica,sans-Serif" font-size="10.00" fill="#000000"> connector</text>
</g>
<!-- Node3 -->
<g id="node3" class="node">
<title>Node3</title>
<g id="a_node3"><a xlink:href="classjsonrpccxx_1_1JsonRpc2Server.html" target="_top" xlink:title="jsonrpccxx::JsonRpc2Server">
<polygon fill="#ffffff" stroke="#000000" points="152.5,-73 152.5,-92 303.5,-92 303.5,-73 152.5,-73"/>
<text text-anchor="middle" x="228" y="-80" font-family="Helvetica,sans-Serif" font-size="10.00" fill="#000000">jsonrpccxx::JsonRpc2Server</text>
</a>
</g>
</g>
<!-- Node3&#45;&gt;Node1 -->
<g id="edge2" class="edge">
<title>Node3&#45;&gt;Node1</title>
<path fill="none" stroke="#9a32cd" stroke-dasharray="5,2" d="M202.7686,-67.7478C178.209,-53.3883 141.598,-31.9827 120.5343,-19.6673"/>
<polygon fill="#9a32cd" stroke="#9a32cd" points="201.1344,-70.8466 211.5338,-72.8726 204.6676,-64.8037 201.1344,-70.8466"/>
<text text-anchor="middle" x="186" y="-41" font-family="Helvetica,sans-Serif" font-size="10.00" fill="#000000"> server</text>
</g>
<!-- Node4 -->
<g id="node4" class="node">
<title>Node4</title>
<g id="a_node4"><a xlink:href="classjsonrpccxx_1_1JsonRpcServer.html" target="_top" xlink:title="jsonrpccxx::JsonRpcServer">
<polygon fill="#ffffff" stroke="#000000" points="155.5,-135.5 155.5,-154.5 300.5,-154.5 300.5,-135.5 155.5,-135.5"/>
<text text-anchor="middle" x="228" y="-142.5" font-family="Helvetica,sans-Serif" font-size="10.00" fill="#000000">jsonrpccxx::JsonRpcServer</text>
</a>
</g>
</g>
<!-- Node4&#45;&gt;Node3 -->
<g id="edge3" class="edge">
<title>Node4&#45;&gt;Node3</title>
<path fill="none" stroke="#191970" d="M228,-124.925C228,-114.0568 228,-101.1118 228,-92.4033"/>
<polygon fill="#191970" stroke="#191970" points="224.5001,-125.2343 228,-135.2344 231.5001,-125.2344 224.5001,-125.2343"/>
</g>
<!-- Node5 -->
<g id="node5" class="node">
<title>Node5</title>
<g id="a_node5"><a xlink:href="classjsonrpccxx_1_1Dispatcher.html" target="_top" xlink:title="jsonrpccxx::Dispatcher">
<polygon fill="#ffffff" stroke="#000000" points="164,-202.5 164,-221.5 292,-221.5 292,-202.5 164,-202.5"/>
<text text-anchor="middle" x="228" y="-209.5" font-family="Helvetica,sans-Serif" font-size="10.00" fill="#000000">jsonrpccxx::Dispatcher</text>
</a>
</g>
</g>
<!-- Node5&#45;&gt;Node4 -->
<g id="edge4" class="edge">
<title>Node5&#45;&gt;Node4</title>
<path fill="none" stroke="#9a32cd" stroke-dasharray="5,2" d="M228,-192.1079C228,-179.714 228,-164.3263 228,-154.5817"/>
<polygon fill="#9a32cd" stroke="#9a32cd" points="224.5001,-192.4005 228,-202.4005 231.5001,-192.4006 224.5001,-192.4005"/>
<text text-anchor="middle" x="255.5" y="-176" font-family="Helvetica,sans-Serif" font-size="10.00" fill="#000000"> dispatcher</text>
</g>
</g>
</svg>
