<?xml version="1.0" encoding="UTF-8" standalone="no"?>
<!DOCTYPE svg PUBLIC "-//W3C//DTD SVG 1.1//EN"
 "http://www.w3.org/Graphics/SVG/1.1/DTD/svg11.dtd">
<!-- Generated by graphviz version 2.40.1 (20161225.0304)
 -->
<!-- Title: Test::IntegrationTest::IntegrationTest Pages: 1 -->
<svg width="453pt" height="240pt"
 viewBox="0.00 0.00 453.00 240.00" xmlns="http://www.w3.org/2000/svg" xmlns:xlink="http://www.w3.org/1999/xlink">
<g id="graph0" class="graph" transform="scale(1 1) rotate(0) translate(4 236)">
<title>Test::IntegrationTest::IntegrationTest</title>
<polygon fill="#ffffff" stroke="transparent" points="-4,4 -4,-236 449,-236 449,4 -4,4"/>
<!-- Node1 -->
<g id="node1" class="node">
<title>Node1</title>
<polygon fill="#bfbfbf" stroke="#000000" points="147,-.5 147,-30.5 262,-30.5 262,-.5 147,-.5"/>
<text text-anchor="start" x="155" y="-18.5" font-family="Helvetica,sans-Serif" font-size="10.00" fill="#000000">Test::IntegrationTest</text>
<text text-anchor="middle" x="204.5" y="-7.5" font-family="Helvetica,sans-Serif" font-size="10.00" fill="#000000">::IntegrationTest</text>
</g>
<!-- Node2 -->
<g id="node2" class="node">
<title>Node2</title>
<g id="a_node2"><a xlink:href="classInMemoryConnector.html" target="_top" xlink:title="InMemoryConnector">
<polygon fill="#ffffff" stroke="#000000" points="0,-78.5 0,-97.5 115,-97.5 115,-78.5 0,-78.5"/>
<text text-anchor="middle" x="57.5" y="-85.5" font-family="Helvetica,sans-Serif" font-size="10.00" fill="#000000">InMemoryConnector</text>
</a>
</g>
</g>
<!-- Node2&#45;&gt;Node1 -->
<g id="edge1" class="edge">
<title>Node2&#45;&gt;Node1</title>
<path fill="none" stroke="#9a32cd" stroke-dasharray="5,2" d="M86.0886,-73.9002C111.3355,-61.4485 148.0469,-43.3425 173.8846,-30.5995"/>
<polygon fill="#9a32cd" stroke="#9a32cd" points="84.4409,-70.8103 77.0205,-78.3726 87.5372,-77.0882 84.4409,-70.8103"/>
<text text-anchor="middle" x="161.5" y="-52" font-family="Helvetica,sans-Serif" font-size="10.00" fill="#000000"> connector</text>
</g>
<!-- Node3 -->
<g id="node3" class="node">
<title>Node3</title>
<g id="a_node3"><a xlink:href="classjsonrpccxx_1_1IClientConnector.html" target="_top" xlink:title="jsonrpccxx::IClientConnector">
<polygon fill="#ffffff" stroke="#000000" points="107.5,-145.5 107.5,-164.5 263.5,-164.5 263.5,-145.5 107.5,-145.5"/>
<text text-anchor="middle" x="185.5" y="-152.5" font-family="Helvetica,sans-Serif" font-size="10.00" fill="#000000">jsonrpccxx::IClientConnector</text>
</a>
</g>
</g>
<!-- Node3&#45;&gt;Node2 -->
<g id="edge2" class="edge">
<title>Node3&#45;&gt;Node2</title>
<path fill="none" stroke="#191970" d="M158.2375,-140.7298C133.3881,-127.7227 97.3664,-108.8676 75.8053,-97.5817"/>
<polygon fill="#191970" stroke="#191970" points="156.6779,-143.8639 167.1607,-145.4005 159.9242,-137.6621 156.6779,-143.8639"/>
</g>
<!-- Node7 -->
<g id="node7" class="node">
<title>Node7</title>
<g id="a_node7"><a xlink:href="classjsonrpccxx_1_1JsonRpcClient.html" target="_top" xlink:title="jsonrpccxx::JsonRpcClient">
<polygon fill="#ffffff" stroke="#000000" points="133.5,-78.5 133.5,-97.5 275.5,-97.5 275.5,-78.5 133.5,-78.5"/>
<text text-anchor="middle" x="204.5" y="-85.5" font-family="Helvetica,sans-Serif" font-size="10.00" fill="#000000">jsonrpccxx::JsonRpcClient</text>
</a>
</g>
</g>
<!-- Node3&#45;&gt;Node7 -->
<g id="edge7" class="edge">
<title>Node3&#45;&gt;Node7</title>
<path fill="none" stroke="#9a32cd" stroke-dasharray="5,2" d="M191.0337,-135.4863C194.5665,-123.0286 198.9912,-107.4258 201.7828,-97.5817"/>
<polygon fill="#9a32cd" stroke="#9a32cd" points="187.5833,-134.825 188.2222,-145.4005 194.3178,-136.7348 187.5833,-134.825"/>
<text text-anchor="middle" x="222.5" y="-119" font-family="Helvetica,sans-Serif" font-size="10.00" fill="#000000"> connector</text>
</g>
<!-- Node4 -->
<g id="node4" class="node">
<title>Node4</title>
<g id="a_node4"><a xlink:href="classjsonrpccxx_1_1JsonRpc2Server.html" target="_top" xlink:title="jsonrpccxx::JsonRpc2Server">
<polygon fill="#ffffff" stroke="#000000" points="294,-78.5 294,-97.5 445,-97.5 445,-78.5 294,-78.5"/>
<text text-anchor="middle" x="369.5" y="-85.5" font-family="Helvetica,sans-Serif" font-size="10.00" fill="#000000">jsonrpccxx::JsonRpc2Server</text>
</a>
</g>
</g>
<!-- Node4&#45;&gt;Node1 -->
<g id="edge3" class="edge">
<title>Node4&#45;&gt;Node1</title>
<path fill="none" stroke="#9a32cd" stroke-dasharray="5,2" d="M338.1567,-74.228C309.7995,-61.768 268.1212,-43.4548 238.8643,-30.5995"/>
<polygon fill="#9a32cd" stroke="#9a32cd" points="337.0261,-77.5541 347.5893,-78.3726 339.842,-71.1454 337.0261,-77.5541"/>
<text text-anchor="middle" x="326.5" y="-52" font-family="Helvetica,sans-Serif" font-size="10.00" fill="#000000"> rpcServer</text>
</g>
<!-- Node5 -->
<g id="node5" class="node">
<title>Node5</title>
<g id="a_node5"><a xlink:href="classjsonrpccxx_1_1JsonRpcServer.html" target="_top" xlink:title="jsonrpccxx::JsonRpcServer">
<polygon fill="#ffffff" stroke="#000000" points="297,-145.5 297,-164.5 442,-164.5 442,-145.5 297,-145.5"/>
<text text-anchor="middle" x="369.5" y="-152.5" font-family="Helvetica,sans-Serif" font-size="10.00" fill="#000000">jsonrpccxx::JsonRpcServer</text>
</a>
</g>
</g>
<!-- Node5&#45;&gt;Node4 -->
<g id="edge4" class="edge">
<title>Node5&#45;&gt;Node4</title>
<path fill="none" stroke="#191970" d="M369.5,-135.1079C369.5,-122.714 369.5,-107.3263 369.5,-97.5817"/>
<polygon fill="#191970" stroke="#191970" points="366.0001,-135.4005 369.5,-145.4005 373.0001,-135.4006 366.0001,-135.4005"/>
</g>
<!-- Node6 -->
<g id="node6" class="node">
<title>Node6</title>
<g id="a_node6"><a xlink:href="classjsonrpccxx_1_1Dispatcher.html" target="_top" xlink:title="jsonrpccxx::Dispatcher">
<polygon fill="#ffffff" stroke="#000000" points="305.5,-212.5 305.5,-231.5 433.5,-231.5 433.5,-212.5 305.5,-212.5"/>
<text text-anchor="middle" x="369.5" y="-219.5" font-family="Helvetica,sans-Serif" font-size="10.00" fill="#000000">jsonrpccxx::Dispatcher</text>
</a>
</g>
</g>
<!-- Node6&#45;&gt;Node5 -->
<g id="edge5" class="edge">
<title>Node6&#45;&gt;Node5</title>
<path fill="none" stroke="#9a32cd" stroke-dasharray="5,2" d="M369.5,-202.1079C369.5,-189.714 369.5,-174.3263 369.5,-164.5817"/>
<polygon fill="#9a32cd" stroke="#9a32cd" points="366.0001,-202.4005 369.5,-212.4005 373.0001,-202.4006 366.0001,-202.4005"/>
<text text-anchor="middle" x="397" y="-186" font-family="Helvetica,sans-Serif" font-size="10.00" fill="#000000"> dispatcher</text>
</g>
<!-- Node7&#45;&gt;Node1 -->
<g id="edge6" class="edge">
<title>Node7&#45;&gt;Node1</title>
<path fill="none" stroke="#9a32cd" stroke-dasharray="5,2" d="M204.5,-68.0177C204.5,-56.2164 204.5,-41.513 204.5,-30.668"/>
<polygon fill="#9a32cd" stroke="#9a32cd" points="201.0001,-68.2223 204.5,-78.2223 208.0001,-68.2224 201.0001,-68.2223"/>
<text text-anchor="middle" x="220" y="-52" font-family="Helvetica,sans-Serif" font-size="10.00" fill="#000000"> client</text>
</g>
</g>
</svg>
